<?xml version="1.0" encoding="UTF-8" standalone="no"?>
<!-- Created with Inkscape (http://www.inkscape.org/) -->

<svg
   width="15.628128mm"
   height="15.628128mm"
   viewBox="0 0 15.628128 15.628128"
   version="1.1"
   id="svg955"
   xmlns:inkscape="http://www.inkscape.org/namespaces/inkscape"
   xmlns:sodipodi="http://sodipodi.sourceforge.net/DTD/sodipodi-0.dtd"
   xmlns="http://www.w3.org/2000/svg"
   xmlns:svg="http://www.w3.org/2000/svg">
  <sodipodi:namedview
     id="namedview957"
     pagecolor="#ffffff"
     bordercolor="#000000"
     borderopacity="0.25"
     inkscape:showpageshadow="2"
     inkscape:pageopacity="0.0"
     inkscape:pagecheckerboard="0"
     inkscape:deskcolor="#d1d1d1"
     inkscape:document-units="mm"
     showgrid="false" />
  <defs
     id="defs952" />
  <g
     inkscape:label="Layer 1"
     inkscape:groupmode="layer"
     id="layer1"
     transform="translate(-94.400332,-160.54356)">
    <g
       id="g365"
       transform="matrix(0.12648622,0,0,0.12648622,89.307366,156.44212)">
		<g
   id="g347">
			<polygon
   style="fill:#cc2747"
   points="79.223,91.831 98.392,97.855 124.863,71.384 "
   id="polygon343" />

			<polygon
   style="fill:#eb4960"
   points="104.416,117.024 98.392,97.855 124.863,71.384 "
   id="polygon345" />

		</g>

		<g
   id="g351">
			<path
   style="fill:#27363b"
   d="m 102.043,146.925 c -29.07,0 -52.721,-23.65 -52.721,-52.721 0,-29.071 23.651,-52.721 52.721,-52.721 29.071,0 52.721,23.651 52.721,52.721 0,29.07 -23.65,52.721 -52.721,52.721 z m 0,-102.033 c -27.19,0 -49.312,22.121 -49.312,49.312 0,27.19 22.121,49.311 49.312,49.311 27.191,0 49.312,-22.121 49.312,-49.311 0,-27.191 -22.121,-49.312 -49.312,-49.312 z"
   id="path349" />

		</g>

		<g
   id="g355">
			<path
   style="fill:#27363b"
   d="m 102.043,155.982 c -34.064,0 -61.778,-27.714 -61.778,-61.778 0,-34.065 27.714,-61.778 61.778,-61.778 34.064,0 61.778,27.713 61.778,61.778 0,34.064 -27.714,61.778 -61.778,61.778 z m 0,-120.146 c -32.185,0 -58.368,26.184 -58.368,58.368 0,32.185 26.184,58.368 58.368,58.368 32.185,0 58.368,-26.184 58.368,-58.368 0,-32.184 -26.183,-58.368 -58.368,-58.368 z"
   id="path353" />

		</g>

		<g
   id="g359">
			<path
   style="fill:#27363b"
   d="m 101.076,154.725 c -0.373,-0.006 -0.746,-0.015 -1.118,-0.028 l 0.35,-10.223 c 0.308,0.011 0.617,0.018 0.927,0.023 z m 14.76,-1.573 -2.314,-9.964 c 0.3,-0.07 0.598,-0.142 0.895,-0.217 l 2.511,9.916 c -0.362,0.092 -0.727,0.18 -1.092,0.265 z m -30.548,-0.77 c -0.36,-0.104 -0.719,-0.21 -1.077,-0.321 l 3.018,-9.773 c 0.293,0.091 0.588,0.178 0.883,0.263 z m 45.484,-4.891 -4.857,-9.002 c 0.27,-0.146 0.539,-0.294 0.806,-0.445 l 5.03,8.907 c -0.324,0.183 -0.65,0.363 -0.979,0.54 z m -60.115,-1.523 c -0.32,-0.194 -0.637,-0.391 -0.953,-0.591 l 5.477,-8.639 c 0.261,0.166 0.524,0.329 0.788,0.489 z m 73.034,-7.842 -7.038,-7.422 c 0.225,-0.213 0.447,-0.428 0.668,-0.646 l 7.173,7.293 c -0.266,0.26 -0.533,0.519 -0.803,0.775 z M 58.224,135.96 c -0.257,-0.269 -0.511,-0.541 -0.763,-0.815 l 7.531,-6.922 c 0.21,0.228 0.421,0.454 0.635,0.678 z M 153.731,125.716 145,120.387 c 0.162,-0.265 0.322,-0.532 0.479,-0.801 l 8.825,5.172 c -0.189,0.321 -0.38,0.641 -0.573,0.958 z M 48.826,123.064 c -0.177,-0.325 -0.35,-0.652 -0.521,-0.981 l 9.073,-4.722 c 0.143,0.275 0.289,0.548 0.436,0.82 z m 111.352,-11.958 -9.82,-2.86 c 0.086,-0.295 0.169,-0.59 0.248,-0.887 l 9.876,2.665 c -0.098,0.362 -0.199,0.723 -0.304,1.082 z M 43.13,108.149 c -0.086,-0.364 -0.168,-0.729 -0.247,-1.096 l 9.999,-2.154 c 0.065,0.301 0.133,0.601 0.203,0.899 z m 119.431,-12.827 -10.227,-0.19 c 0.006,-0.309 0.008,-0.618 0.008,-0.928 h 10.229 c 0,0.373 -0.003,0.746 -0.01,1.118 z M 51.769,92.591 41.545,92.272 c 0.012,-0.375 0.027,-0.749 0.046,-1.123 l 10.215,0.521 c -0.015,0.306 -0.027,0.613 -0.037,0.921 z m 99.752,-7.495 c -0.056,-0.306 -0.115,-0.612 -0.176,-0.916 l 10.027,-2.021 c 0.073,0.363 0.143,0.727 0.21,1.093 z M 53.924,79.504 44.14,76.522 c 0.11,-0.36 0.223,-0.719 0.34,-1.077 l 9.723,3.176 c -0.096,0.293 -0.189,0.587 -0.279,0.883 z m 93.503,-7.017 c -0.133,-0.279 -0.27,-0.555 -0.408,-0.831 l 9.14,-4.592 c 0.167,0.331 0.33,0.665 0.491,1 z M 59.444,67.444 50.79,61.991 c 0.199,-0.315 0.399,-0.628 0.603,-0.938 l 8.555,5.607 c -0.17,0.259 -0.338,0.521 -0.504,0.784 z m 80.721,-6.056 c -0.201,-0.234 -0.405,-0.466 -0.611,-0.696 l 7.624,-6.819 c 0.248,0.278 0.494,0.558 0.737,0.84 z M 67.933,57.237 60.996,49.72 c 0.272,-0.252 0.547,-0.501 0.824,-0.747 l 6.803,7.638 c -0.232,0.207 -0.462,0.415 -0.69,0.626 z m 62.328,-4.679 c -0.258,-0.175 -0.517,-0.347 -0.778,-0.518 l 5.59,-8.566 c 0.311,0.203 0.62,0.409 0.927,0.617 z M 78.778,49.596 74.04,40.531 c 0.328,-0.172 0.658,-0.34 0.99,-0.506 l 4.574,9.149 c -0.277,0.138 -0.552,0.278 -0.826,0.422 z m 39.617,-2.975 c -0.293,-0.101 -0.588,-0.199 -0.884,-0.294 l 3.142,-9.734 c 0.356,0.115 0.711,0.233 1.064,0.355 z M 91.233,45.068 89.047,35.075 c 0.363,-0.079 0.726,-0.155 1.091,-0.228 l 2.006,10.03 c -0.304,0.061 -0.608,0.125 -0.911,0.191 z m 14.154,-1.054 c -0.308,-0.02 -0.616,-0.038 -0.925,-0.052 l 0.483,-10.217 c 0.373,0.018 0.745,0.039 1.117,0.063 z"
   id="path357" />

		</g>

		<g
   id="g363">
			<path
   style="fill:#eb4960"
   d="m 108.278,140.252 -0.679,-5.069 c 0.527,-0.071 1.06,-0.153 1.585,-0.244 l 0.877,5.039 c -0.591,0.102 -1.19,0.194 -1.783,0.274 z m -14.361,-0.294 c -0.588,-0.104 -1.183,-0.221 -1.769,-0.348 l 1.083,-4.998 c 0.522,0.113 1.052,0.217 1.575,0.31 z m 29.75,-4.62 -2.384,-4.525 c 0.47,-0.248 0.942,-0.508 1.403,-0.774 l 2.557,4.429 c -0.518,0.299 -1.048,0.591 -1.576,0.87 z m -44.923,-0.927 c -0.522,-0.303 -1.041,-0.619 -1.545,-0.938 l 2.74,-4.318 c 0.447,0.284 0.909,0.564 1.372,0.833 z m 57.685,-8.96 -3.784,-3.441 c 0.359,-0.394 0.715,-0.801 1.057,-1.209 l 3.914,3.292 c -0.385,0.459 -0.784,0.915 -1.187,1.358 z m -70.034,-1.446 c -0.385,-0.46 -0.765,-0.933 -1.13,-1.405 l 4.047,-3.127 c 0.324,0.419 0.662,0.84 1.005,1.249 z m 78.664,-12.209 -4.734,-1.935 c 0.202,-0.496 0.398,-1.001 0.581,-1.502 l 4.805,1.752 c -0.205,0.562 -0.424,1.13 -0.652,1.685 z m -86.721,-1.789 c -0.205,-0.565 -0.4,-1.14 -0.58,-1.709 l 4.874,-1.549 c 0.161,0.505 0.334,1.017 0.516,1.519 z m 90.134,-14.003 -5.111,-0.193 c 0.02,-0.536 0.031,-1.077 0.031,-1.607 h 5.114 c 0,0.594 -0.012,1.2 -0.034,1.8 z M 60.695,94.108 55.581,94.096 c 10e-4,-0.594 0.014,-1.2 0.038,-1.8 l 5.11,0.205 c -0.022,0.536 -0.033,1.077 -0.034,1.607 z m 80.789,-12.356 c -0.161,-0.51 -0.333,-1.021 -0.513,-1.521 l 4.814,-1.727 c 0.201,0.562 0.395,1.137 0.576,1.709 z m -78.27,-1.795 -4.802,-1.761 c 0.205,-0.559 0.426,-1.126 0.656,-1.685 l 4.729,1.947 c -0.205,0.497 -0.401,1.002 -0.583,1.499 z m 71.62,-10.946 c -0.323,-0.42 -0.66,-0.841 -1.002,-1.251 l 3.929,-3.274 c 0.384,0.461 0.763,0.935 1.127,1.408 z M 70.445,67.533 66.539,64.232 c 0.386,-0.457 0.787,-0.913 1.191,-1.355 l 3.776,3.45 c -0.36,0.393 -0.717,0.799 -1.061,1.206 z m 53.782,-8.229 c -0.445,-0.284 -0.907,-0.566 -1.37,-0.836 l 2.578,-4.417 c 0.521,0.304 1.04,0.621 1.543,0.942 z M 81.483,58.321 78.936,53.886 c 0.518,-0.298 1.049,-0.589 1.578,-0.866 l 2.373,4.53 c -0.47,0.247 -0.943,0.506 -1.404,0.771 z m 29.465,-4.504 c -0.522,-0.114 -1.051,-0.22 -1.574,-0.313 l 0.901,-5.034 c 0.587,0.105 1.183,0.224 1.769,0.352 z M 94.996,53.453 94.132,48.412 c 0.588,-0.101 1.188,-0.192 1.782,-0.27 l 0.67,5.07 c -0.53,0.071 -1.064,0.151 -1.588,0.241 z"
   id="path361" />

		</g>

	</g>
  </g>
</svg>
